<?xml version="1.0" encoding="utf-8"?>
<!-- Generator: Adobe Illustrator 27.7.0, SVG Export Plug-In . SVG Version: 6.00 Build 0)  -->
<svg version="1.1" id="Layer_1" xmlns="http://www.w3.org/2000/svg" xmlns:xlink="http://www.w3.org/1999/xlink" x="0px" y="0px"
	 viewBox="0 0 595.28 287.89" style="enable-background:new 0 0 595.28 287.89;" xml:space="preserve">
<style type="text/css">
	.st0{fill:#1E75BC;}
	.st1{fill:#BB9D2F;}
	.st2{fill:#F7931F;}
	.st3{fill:#8AC645;}
</style>
<g>
	<g>
		<polygon points="102.49,200.04 95.05,200.04 95.05,233.77 110.62,233.77 110.62,227.61 102.49,227.61 		"/>
		<path d="M141.8,206.4c0-4.59-2.2-6.88-6.59-6.88h-7.07c-4.39,0-6.59,2.29-6.59,6.88v21.01c0,4.59,2.2,6.88,6.59,6.88h7.07
			c4.39,0,6.59-2.29,6.59-6.88V206.4z M134.37,228.24c0,0.28-0.1,0.52-0.29,0.73c-0.2,0.21-0.43,0.31-0.72,0.31h-3.35
			c-0.28,0-0.52-0.1-0.72-0.31c-0.2-0.21-0.29-0.45-0.29-0.73v-22.73c0-0.28,0.1-0.52,0.29-0.73c0.19-0.21,0.43-0.31,0.72-0.31h3.35
			c0.28,0,0.52,0.1,0.72,0.31c0.19,0.21,0.29,0.45,0.29,0.73V228.24z"/>
		<path d="M173.53,227.41V215h-9.83v5.37h2.76v7.87c0,0.28-0.1,0.52-0.29,0.73c-0.2,0.21-0.43,0.31-0.72,0.31h-3.35
			c-0.28,0-0.52-0.1-0.72-0.31s-0.29-0.45-0.29-0.73v-22.73c0-0.28,0.1-0.52,0.29-0.73c0.19-0.21,0.43-0.31,0.72-0.31h3.35
			c0.28,0,0.52,0.1,0.72,0.31c0.19,0.21,0.29,0.45,0.29,0.73v4.07h7.07v-3.18c0-4.59-2.2-6.88-6.59-6.88h-6.7
			c-4.39,0-6.59,2.29-6.59,6.88v21.01c0,4.59,2.2,6.88,6.59,6.88h6.7C171.33,234.29,173.53,231.99,173.53,227.41z"/>
		<path d="M198.71,199.52h-7.07c-4.39,0-6.59,2.29-6.59,6.88v21.01c0,4.59,2.2,6.88,6.59,6.88h7.07c4.39,0,6.59-2.29,6.59-6.88
			V206.4C205.3,201.81,203.1,199.52,198.71,199.52z M197.86,228.24c0,0.28-0.1,0.52-0.29,0.73c-0.2,0.21-0.43,0.31-0.72,0.31h-3.35
			c-0.28,0-0.52-0.1-0.72-0.31s-0.29-0.45-0.29-0.73v-22.73c0-0.28,0.1-0.52,0.29-0.73c0.19-0.21,0.43-0.31,0.72-0.31h3.35
			c0.28,0,0.52,0.1,0.72,0.31c0.19,0.21,0.29,0.45,0.29,0.73V228.24z"/>
		<path d="M248.6,199.52h-6.7c-4.39,0-6.59,2.29-6.59,6.88v21.01c0,4.59,2.2,6.88,6.59,6.88h6.7c4.39,0,6.59-2.29,6.59-6.88v-4.38
			h-7.07v5.21c0,0.28-0.1,0.52-0.29,0.73c-0.2,0.21-0.43,0.31-0.72,0.31h-3.35c-0.28,0-0.52-0.1-0.72-0.31s-0.29-0.45-0.29-0.73
			v-22.73c0-0.28,0.1-0.52,0.29-0.73c0.19-0.21,0.43-0.31,0.72-0.31h3.35c0.28,0,0.52,0.1,0.72,0.31c0.19,0.21,0.29,0.45,0.29,0.73
			v4.07h7.07v-3.18C255.19,201.81,253,199.52,248.6,199.52z"/>
		<path d="M279.1,220.99v12.77h7.44v-13.34c0-2.22-0.89-3.65-2.66-4.27c2.02-0.76,3.03-2.54,3.03-5.32v-3.91
			c0-4.59-2.2-6.88-6.59-6.88h-13.23v33.73h7.44v-13.81h3.56C278.77,219.95,279.1,220.3,279.1,220.99z M274.53,214.84v-9.85h3.93
			c0.28,0,0.52,0.1,0.72,0.31c0.19,0.21,0.29,0.45,0.29,0.73v7.77c0,0.28-0.1,0.52-0.29,0.73c-0.19,0.21-0.43,0.31-0.72,0.31
			L274.53,214.84L274.53,214.84z"/>
		<path d="M319.38,233.77V206.4c0-4.59-2.2-6.88-6.59-6.88h-7.07c-4.39,0-6.59,2.29-6.59,6.88v27.37h7.44v-11.31h5.37v11.31
			L319.38,233.77L319.38,233.77z M306.57,216.82v-11.31c0-0.28,0.1-0.52,0.29-0.73c0.19-0.21,0.43-0.31,0.72-0.31h3.35
			c0.28,0,0.52,0.1,0.72,0.31c0.19,0.21,0.29,0.45,0.29,0.73v11.31H306.57z"/>
		<polygon points="346.26,214.43 338.72,214.43 338.72,206.35 346.8,206.35 346.8,200.04 331.28,200.04 331.28,233.77 
			338.72,233.77 338.72,220.52 346.26,220.52 		"/>
		<polygon points="375.22,200.04 356.62,200.04 356.62,206.24 362.2,206.24 362.2,233.77 369.64,233.77 369.64,206.24 
			375.22,206.24 		"/>
		<path d="M404.45,227.41v-7.25c0-4.52-2.2-6.81-6.59-6.88h-4.78c-0.28,0-0.52-0.1-0.72-0.31c-0.2-0.21-0.29-0.45-0.29-0.73v-5.99
			c0-0.28,0.1-0.52,0.29-0.73c0.19-0.21,0.43-0.31,0.72-0.31H396c0.28,0,0.52,0.1,0.72,0.31c0.19,0.21,0.29,0.45,0.29,0.73v2.66
			h7.07v-2.5c0-4.59-2.2-6.88-6.59-6.88h-5.9c-4.39,0-6.59,2.29-6.59,6.88v6.72c0,4.59,2.2,6.88,6.59,6.88h4.78
			c0.28,0,0.52,0.1,0.72,0.31c0.19,0.21,0.29,0.45,0.29,0.73v6.62c0,0.28-0.1,0.52-0.29,0.73c-0.2,0.21-0.43,0.31-0.72,0.31h-3.29
			c-0.28,0-0.52-0.1-0.72-0.31c-0.2-0.21-0.29-0.45-0.29-0.73v-3.75H385v3.49c0,4.59,2.2,6.88,6.59,6.88h6.27
			C402.25,234.29,404.45,231.99,404.45,227.41z"/>
		<path d="M436.49,233.77v-27.99c0-0.28,0.1-0.52,0.29-0.73c0.19-0.21,0.43-0.31,0.72-0.31h2.87c0.28,0,0.52,0.1,0.72,0.31
			c0.19,0.21,0.29,0.45,0.29,0.73v27.99h7.44V206.4c0-4.59-2.2-6.88-6.59-6.88h-3.93c-2.66,0-4.5,0.83-5.53,2.5
			c-1.1-1.67-2.94-2.5-5.53-2.5h-3.93c-4.39,0-6.59,2.29-6.59,6.88v27.37h7.44v-27.99c0-0.28,0.1-0.52,0.29-0.73
			c0.19-0.21,0.43-0.31,0.72-0.31h2.87c0.28,0,0.52,0.1,0.72,0.31c0.19,0.21,0.29,0.45,0.29,0.73v27.99L436.49,233.77L436.49,233.77
			z"/>
		<polygon points="461.35,233.77 477.03,233.77 477.03,227.72 468.79,227.72 468.79,219.64 476.5,219.64 476.5,213.9 468.79,213.9 
			468.79,205.98 477.03,205.98 477.03,200.04 461.35,200.04 		"/>
		<path d="M500.83,199.52h-6.59c-4.39,0-6.59,2.29-6.59,6.88v27.37h7.44v-27.99c0-0.28,0.1-0.52,0.29-0.73
			c0.19-0.21,0.43-0.31,0.72-0.31h2.87c0.28,0,0.52,0.1,0.72,0.31c0.19,0.21,0.29,0.45,0.29,0.73v27.99h7.44V206.4
			C507.42,201.81,505.22,199.52,500.83,199.52z"/>
	</g>
	<g>
		<polygon points="71.79,256.83 76.04,256.83 76.04,255 71.79,255 71.79,251.85 76.8,251.85 76.8,250.02 69.7,250.02 69.7,262.3 
			76.98,262.3 76.98,260.47 71.79,260.47 		"/>
		<polygon points="86.92,250.02 84.83,250.02 84.83,262.3 91.82,262.3 91.82,260.47 86.92,260.47 		"/>
		<polygon points="101.04,256.83 105.28,256.83 105.28,255 101.04,255 101.04,251.85 106.05,251.85 106.05,250.02 98.95,250.02 
			98.95,262.3 106.23,262.3 106.23,260.47 101.04,260.47 		"/>
		<path d="M118.18,256.19c-0.37,1.39-0.64,2.6-1.04,4h-0.07c-0.4-1.4-0.66-2.6-1.04-4l-1.66-6.18h-2.22l3.67,12.28h2.48l3.65-12.28
			h-2.14L118.18,256.19z"/>
		<path d="M129.75,250.02l-3.85,12.28h2.14l0.92-3.33h3.96l0.92,3.33h2.22l-3.85-12.28L129.75,250.02L129.75,250.02z M129.43,257.26
			l0.42-1.5c0.38-1.3,0.72-2.69,1.05-4.05h0.07c0.35,1.35,0.69,2.75,1.07,4.05l0.41,1.5H129.43z"/>
		<polygon points="140.39,251.85 143.79,251.85 143.79,262.3 145.89,262.3 145.89,251.85 149.3,251.85 149.3,250.02 140.39,250.02 
					"/>
		<rect x="156.68" y="250.02" width="2.09" height="12.28"/>
		<path d="M173.32,255.35c0,1.37,0.17,2.92,0.27,4.19h-0.07l-1.22-2.62l-3.67-6.9h-2.15v12.28h1.99v-5.38
			c0-1.37-0.17-2.85-0.27-4.15h0.07l1.22,2.61l3.67,6.92h2.15v-12.28h-1.99V255.35z"/>
		<path d="M187.25,257.44h2.22v2.65c-0.38,0.35-1.03,0.54-1.68,0.54c-2.37,0-3.62-1.7-3.62-4.5c0-2.76,1.41-4.45,3.5-4.45
			c1.1,0,1.79,0.47,2.38,1.07l1.12-1.4c-0.74-0.79-1.89-1.56-3.57-1.56c-3.14,0-5.59,2.39-5.59,6.41c0,4.06,2.38,6.33,5.56,6.33
			c1.62,0,2.98-0.63,3.77-1.46v-5.42h-4.1L187.25,257.44L187.25,257.44z"/>
		<path d="M210.84,250.02h-3.15v12.28h3.26c3.51,0,5.65-2.13,5.65-6.19C216.6,252.04,214.46,250.02,210.84,250.02z M210.71,260.53
			h-0.92v-8.75h0.92c2.38,0,3.74,1.31,3.74,4.33C214.45,259.13,213.08,260.53,210.71,260.53z"/>
		<polygon points="225.77,256.83 230.01,256.83 230.01,255 225.77,255 225.77,251.85 230.78,251.85 230.78,250.02 223.68,250.02 
			223.68,262.3 230.96,262.3 230.96,260.47 225.77,260.47 		"/>
		<path d="M243.02,255.56l-1.59-0.7c-0.98-0.42-1.88-0.77-1.88-1.74c0-0.9,0.73-1.44,1.85-1.44c1.01,0,1.81,0.39,2.56,1.06
			l1.08-1.38c-0.92-0.97-2.26-1.57-3.64-1.57c-2.3,0-3.96,1.51-3.96,3.46c0,1.8,1.22,2.75,2.39,3.26l1.61,0.73
			c1.07,0.47,1.83,0.8,1.83,1.81c0,0.96-0.73,1.58-2.06,1.58c-1.1,0-2.23-0.56-3.08-1.4l-1.22,1.5c1.12,1.15,2.66,1.8,4.25,1.8
			c2.65,0,4.24-1.66,4.24-3.65C245.4,257.09,244.42,256.17,243.02,255.56z"/>
		<rect x="252.98" y="250.02" width="2.09" height="12.28"/>
		<path d="M267.01,257.44h2.22v2.65c-0.38,0.35-1.03,0.54-1.68,0.54c-2.37,0-3.62-1.7-3.62-4.5c0-2.76,1.41-4.45,3.5-4.45
			c1.1,0,1.79,0.47,2.38,1.07l1.12-1.4c-0.74-0.79-1.89-1.56-3.57-1.56c-3.14,0-5.59,2.39-5.59,6.41c0,4.06,2.38,6.33,5.56,6.33
			c1.62,0,2.98-0.63,3.77-1.46v-5.42H267v1.79H267.01z"/>
		<path d="M285.64,255.35c0,1.37,0.17,2.92,0.27,4.19h-0.07l-1.22-2.62l-3.67-6.9h-2.15v12.28h1.99v-5.38
			c0-1.37-0.17-2.85-0.27-4.15h0.07l1.22,2.61l3.67,6.92h2.15v-12.28h-1.99V255.35z"/>
		<polygon points="302.98,251.85 306.38,251.85 306.38,262.3 308.48,262.3 308.48,251.85 311.88,251.85 311.88,250.02 
			302.98,250.02 		"/>
		<path d="M323.03,249.79c-3.08,0-5.21,2.34-5.21,6.32c0,3.98,2.13,6.42,5.21,6.42s5.21-2.44,5.21-6.42
			C328.24,252.15,326.11,249.79,323.03,249.79z M323.03,260.63c-1.86,0-3.05-1.77-3.05-4.52c0-2.76,1.2-4.42,3.05-4.42
			s3.05,1.67,3.05,4.42C326.08,258.87,324.88,260.63,323.03,260.63z"/>
		<path d="M348.39,260.63c-1.98,0-3.25-1.7-3.25-4.5c0-2.76,1.38-4.45,3.3-4.45c0.92,0,1.63,0.44,2.24,1.07l1.12-1.4
			c-0.74-0.82-1.92-1.56-3.4-1.56c-2.99,0-5.41,2.39-5.41,6.41c0,4.06,2.35,6.33,5.32,6.33c1.53,0,2.76-0.63,3.72-1.79l-1.12-1.37
			C350.25,260.13,349.44,260.63,348.39,260.63z"/>
		<path d="M367.03,253.66c0-2.74-1.89-3.64-4.35-3.64h-3.98v12.28h2.09v-4.8h1.8l2.54,4.8h2.35l-2.83-5.13
			C366.08,256.65,367.03,255.52,367.03,253.66z M360.8,251.76h1.67c1.62,0,2.5,0.49,2.5,1.9c0,1.4-0.88,2.1-2.5,2.1h-1.67V251.76z"
			/>
		<path d="M376.29,250.02l-3.85,12.28h2.14l0.92-3.33h3.96l0.92,3.33h2.22l-3.85-12.28L376.29,250.02L376.29,250.02z M375.98,257.26
			l0.42-1.5c0.38-1.3,0.72-2.69,1.05-4.05h0.07c0.35,1.35,0.69,2.75,1.07,4.05l0.41,1.5H375.98z"/>
		<polygon points="389.36,262.3 391.46,262.3 391.46,257.17 395.75,257.17 395.75,255.34 391.46,255.34 391.46,251.85 396.5,251.85 
			396.5,250.02 389.36,250.02 		"/>
		<polygon points="402.6,251.85 406.01,251.85 406.01,262.3 408.1,262.3 408.1,251.85 411.51,251.85 411.51,250.02 402.6,250.02 		
			"/>
		<path d="M422.39,255.56l-1.59-0.7c-0.98-0.42-1.88-0.77-1.88-1.74c0-0.9,0.73-1.44,1.85-1.44c1.01,0,1.81,0.39,2.56,1.06
			l1.08-1.38c-0.92-0.97-2.26-1.57-3.64-1.57c-2.3,0-3.96,1.51-3.96,3.46c0,1.8,1.22,2.75,2.39,3.26l1.61,0.73
			c1.07,0.47,1.83,0.8,1.83,1.81c0,0.96-0.73,1.58-2.06,1.58c-1.1,0-2.23-0.56-3.08-1.4l-1.22,1.5c1.12,1.15,2.66,1.8,4.25,1.8
			c2.65,0,4.24-1.66,4.24-3.65C424.78,257.09,423.8,256.17,422.39,255.56z"/>
		<path d="M438.38,256.02c-0.26,0.78-0.48,1.61-0.74,2.41h-0.07c-0.26-0.8-0.5-1.63-0.76-2.41l-2.09-6h-2.37v12.28h1.88v-5.62
			c0-1.13-0.17-2.77-0.27-3.91h0.07l0.94,2.86l1.95,5.52h1.24l1.94-5.52l0.95-2.86h0.07c-0.1,1.14-0.27,2.77-0.27,3.91v5.62h1.92
			v-12.28h-2.37L438.38,256.02z"/>
		<path d="M453.53,250.02l-3.85,12.28h2.14l0.92-3.33h3.96l0.92,3.33h2.22l-3.85-12.28L453.53,250.02L453.53,250.02z M453.22,257.26
			l0.42-1.5c0.38-1.3,0.72-2.69,1.05-4.05h0.07c0.35,1.35,0.69,2.75,1.07,4.05l0.41,1.5H453.22z"/>
		<path d="M472.72,255.35c0,1.37,0.17,2.92,0.27,4.19h-0.07l-1.22-2.62l-3.67-6.9h-2.15v12.28h1.99v-5.38
			c0-1.37-0.17-2.85-0.27-4.15h0.07l1.22,2.61l3.67,6.92h2.15v-12.28h-1.99V255.35z"/>
		<path d="M488.08,255.56l-1.59-0.7c-0.98-0.42-1.88-0.77-1.88-1.74c0-0.9,0.73-1.44,1.85-1.44c1.01,0,1.81,0.39,2.56,1.06
			l1.08-1.38c-0.92-0.97-2.26-1.57-3.64-1.57c-2.3,0-3.96,1.51-3.96,3.46c0,1.8,1.22,2.75,2.39,3.26l1.61,0.73
			c1.07,0.47,1.83,0.8,1.83,1.81c0,0.96-0.73,1.58-2.06,1.58c-1.1,0-2.23-0.56-3.08-1.4l-1.22,1.5c1.12,1.15,2.66,1.8,4.25,1.8
			c2.65,0,4.24-1.66,4.24-3.65C490.46,257.09,489.48,256.17,488.08,255.56z"/>
		<polygon points="504.18,254.95 499.41,254.95 499.41,250.02 497.31,250.02 497.31,262.3 499.41,262.3 499.41,256.85 
			504.18,256.85 504.18,262.3 506.27,262.3 506.27,250.02 504.18,250.02 		"/>
		<rect x="515.06" y="250.02" width="2.09" height="12.28"/>
		<path d="M528.21,250.02h-3.72v12.28h2.09v-4.52h1.7c2.54,0,4.49-1.24,4.49-3.98C532.77,250.96,530.83,250.02,528.21,250.02z
			 M528.1,256.04h-1.52v-4.28h1.45c1.75,0,2.67,0.52,2.67,2.04C530.7,255.31,529.87,256.04,528.1,256.04z"/>
	</g>
	<path class="st0" d="M301.12,90.71c-17.09,0-31,13.91-31,31s13.91,31,31,31s31-13.91,31-31S318.22,90.71,301.12,90.71z
		 M312.01,130.21c-0.07,0.64-0.23,1.55-0.48,2.77c-0.25,1.23-0.54,2.35-0.88,3.37l-0.13,0.4l-0.42-0.06
		c-0.99-0.15-1.78-0.22-2.34-0.22h-0.01h-0.01c-0.36-0.02-0.7-0.03-1-0.03c-0.3-0.01-0.66-0.01-1.07-0.01h-12.83l-0.02-0.47
		l-0.06-1.1l0.4-0.1c0.66-0.17,1.12-0.36,1.35-0.51c0.18-0.12,0.37-0.36,0.5-0.81c0.14-0.44,0.24-1.18,0.28-2.17
		c0.05-1.01,0.07-2.48,0.07-4.4l0,0l0.04-9.77c0.01-1.1,0.02-2.07,0.02-2.9s-0.01-1.53-0.02-2.1c-0.02-1.12-0.11-1.94-0.23-2.43
		s-0.3-0.71-0.43-0.77c-0.18-0.11-0.61-0.21-1.24-0.24l-0.48-0.02v-0.48v-1.28l0.51,0.01c1.48,0.02,2.45,0.03,2.91,0.04
		c0.45,0.01,0.83,0.03,1.14,0.04c1.96,0,3.25-0.03,3.83-0.09l0.57-0.05l-0.08,1.87l-0.43,0.05c-0.79,0.08-1.36,0.21-1.69,0.33
		c-0.24,0.1-0.42,0.28-0.57,0.68c-0.03,0.09-0.08,0.36-0.11,0.74c-0.04,0.39-0.07,0.91-0.09,1.56c-0.05,1.3-0.09,2.97-0.12,5.01l0,0
		c-0.05,2.29-0.08,4.37-0.11,6.23c-0.02,1.86-0.04,3.71-0.04,5.54c0,1.66,0.04,2.89,0.1,3.66c0.05,0.57,0.13,0.98,0.2,1.16
		l0.03,0.06c0.1,0.08,0.33,0.2,0.71,0.27c0.38,0.08,1.37,0.13,2.87,0.12c1.63,0,2.98-0.17,4.03-0.49c1.08-0.33,1.88-0.68,2.37-1.01
		c0.61-0.47,1.09-1.33,1.36-2.65l0.09-0.47l0.47,0.07l1.06,0.16L312.01,130.21z"/>
	<path d="M301.12,86.71c-19.3,0-35,15.7-35,35s15.7,35,35,35s35-15.7,35-35S320.42,86.71,301.12,86.71z M301.12,152.71
		c-17.09,0-31-13.91-31-31s13.91-31,31-31s31,13.91,31,31S318.22,152.71,301.12,152.71z"/>
	<path class="st1" d="M300.34,66.02c9.67,0,18.02,2.69,24.73,6.11l-8.61-15.21L301.1,29.78l-23.87,41.51
		c5.09-2.44,11.08-4.34,17.93-5.02C296.88,66.11,298.62,66.02,300.34,66.02z"/>
	<path d="M295.6,70.76c1.61-0.16,3.2-0.24,4.74-0.24c22.56,0,37.4,16.08,39.28,18.19c-12.83-22.67-25.67-45.33-38.5-68
		c-12.83,22.32-25.67,44.64-38.5,66.96C265.73,84.28,277.22,72.58,295.6,70.76z M301.09,29.79l15.36,27.14l8.61,15.21
		c-6.71-3.42-15.06-6.11-24.73-6.11c-1.72,0-3.46,0.09-5.18,0.26c-6.85,0.68-12.83,2.59-17.93,5.02L301.09,29.79z"/>
	<path class="st2" d="M328.92,167.21h50.15l-8.35-15.16l-14.96-27.16c-0.45,3.61-1.22,7.15-2.32,10.57
		C348.54,150.72,338.17,160.86,328.92,167.21z"/>
	<path d="M310.55,171.71c9.4,0,76.14,0,76.14,0c-12.02-21.83-24.05-43.67-36.07-65.5c1.19,6.05,2.25,16.33-1.46,27.87
		C340.62,160.65,314.25,170.41,310.55,171.71z M370.73,152.05l8.35,15.16h-50.15c9.25-6.35,19.62-16.49,24.53-31.75
		c1.1-3.42,1.87-6.96,2.32-10.57L370.73,152.05z"/>
	<path class="st3" d="M248.8,135.46c-1.1-3.42-1.87-6.96-2.32-10.57l-14.96,27.16l-8.35,15.16h50.15
		C264.08,160.86,253.71,150.72,248.8,135.46z"/>
	<path d="M253.08,134.08c-3.71-11.54-2.64-21.82-1.46-27.87c-12.02,21.83-24.05,43.67-36.07,65.5c0,0,66.74,0,76.14,0
		C288,170.41,261.63,160.65,253.08,134.08z M223.17,167.21l8.35-15.16l14.96-27.16c0.45,3.61,1.22,7.15,2.32,10.57
		c4.91,15.26,15.28,25.4,24.53,31.75L223.17,167.21L223.17,167.21z"/>
	<g>
		<path d="M310.53,129.5l-0.09,0.47c-0.27,1.32-0.74,2.18-1.36,2.65c-0.49,0.34-1.29,0.69-2.37,1.01c-1.05,0.32-2.4,0.49-4.03,0.49
			c-1.5,0-2.49-0.05-2.87-0.12s-0.61-0.18-0.71-0.27l-0.03-0.06c-0.07-0.18-0.16-0.58-0.2-1.16c-0.07-0.77-0.1-2-0.1-3.66
			c0-1.83,0.01-3.68,0.04-5.54c0.02-1.86,0.06-3.94,0.11-6.23l0,0c0.04-2.04,0.08-3.71,0.12-5.01c0.02-0.64,0.05-1.17,0.09-1.56
			c0.03-0.38,0.08-0.65,0.11-0.74c0.15-0.41,0.33-0.58,0.57-0.68c0.32-0.13,0.9-0.25,1.69-0.33l0.43-0.05l0.08-1.87l-0.57,0.05
			c-0.58,0.06-1.87,0.09-3.83,0.09c-0.31-0.01-0.68-0.03-1.14-0.04c-0.47-0.01-1.43-0.03-2.91-0.04l-0.51-0.01v1.28v0.48l0.48,0.02
			c0.63,0.02,1.06,0.13,1.24,0.24c0.12,0.06,0.3,0.28,0.43,0.77c0.12,0.48,0.21,1.31,0.23,2.43c0.01,0.57,0.02,1.27,0.02,2.1
			s-0.01,1.8-0.02,2.9l-0.04,9.77l0,0c0,1.92-0.02,3.39-0.07,4.4c-0.04,1-0.15,1.74-0.28,2.17c-0.14,0.44-0.32,0.69-0.5,0.81
			c-0.23,0.15-0.69,0.34-1.35,0.51l-0.4,0.1l0.06,1.1l0.02,0.47h12.83c0.41,0,0.76,0,1.07,0.01s0.64,0.02,1,0.03h0.01h0.01
			c0.56,0,1.34,0.07,2.34,0.22l0.42,0.06l0.13-0.4c0.34-1.01,0.63-2.14,0.88-3.37c0.25-1.22,0.41-2.14,0.48-2.77l0.06-0.48
			l-1.06-0.16L310.53,129.5z"/>
		<path d="M310.65,136.97l-0.58-0.09c-0.97-0.14-1.73-0.21-2.31-0.21c-0.39-0.02-0.72-0.03-1.03-0.03c-0.3-0.01-0.66-0.01-1.06-0.01
			h-13.02l-0.1-1.92l0.55-0.14c0.58-0.15,1.06-0.33,1.29-0.48c0.17-0.11,0.32-0.35,0.42-0.7c0.14-0.44,0.23-1.19,0.28-2.12
			c0.05-1,0.07-2.48,0.07-4.39l0.04-9.77c0.01-1.1,0.02-2.07,0.02-2.9s-0.01-1.53-0.02-2.1c-0.03-1.35-0.14-2.04-0.22-2.38
			c-0.11-0.44-0.26-0.61-0.32-0.65c-0.16-0.09-0.57-0.19-1.16-0.22l-0.67-0.03v-2.15l0.71,0.01c1.48,0.02,2.45,0.03,2.92,0.04
			c0.46,0.01,0.83,0.03,1.14,0.04c0.01,0,0.02,0,0.02,0c1.88,0,3.19-0.03,3.78-0.09l0.8-0.08l-0.09,2.27l-0.6,0.07
			c-0.73,0.08-1.31,0.19-1.63,0.32c-0.17,0.07-0.32,0.2-0.46,0.57c-0.02,0.06-0.07,0.31-0.1,0.69c-0.04,0.39-0.07,0.92-0.09,1.55
			c-0.05,1.3-0.09,2.98-0.12,5c-0.05,2.3-0.08,4.37-0.11,6.24c-0.02,1.81-0.04,3.68-0.04,5.54c0,1.65,0.03,2.87,0.1,3.65
			c0.05,0.59,0.13,0.96,0.19,1.1v0.01c0.09,0.06,0.29,0.15,0.59,0.2c0.38,0.08,1.41,0.12,2.75,0.12c0.03,0,0.05,0,0.09,0
			c1.59,0,2.92-0.16,3.97-0.48c1.02-0.31,1.83-0.65,2.32-0.99c0.6-0.46,1.03-1.31,1.27-2.52l0.13-0.65l1.91,0.29l-0.08,0.67
			c-0.07,0.62-0.23,1.53-0.48,2.79c-0.25,1.23-0.55,2.37-0.88,3.39L310.65,136.97z M307.75,136.27c0.59,0,1.39,0.07,2.38,0.22
			l0.25,0.04l0.08-0.24c0.33-1.01,0.62-2.13,0.87-3.34c0.25-1.24,0.41-2.14,0.48-2.76l0.03-0.29l-1.15-0.18l-0.06,0.28
			c-0.26,1.31-0.75,2.24-1.43,2.77c-0.54,0.37-1.38,0.73-2.44,1.05c-1.08,0.33-2.46,0.5-4.08,0.5c-0.03,0-0.06,0-0.09,0
			c-1.39,0-2.42-0.05-2.83-0.13c-0.35-0.06-0.64-0.18-0.8-0.31l-0.05-0.06l-0.03-0.06c-0.1-0.23-0.18-0.69-0.22-1.23
			c-0.07-0.78-0.1-2.02-0.1-3.68c0-1.86,0.01-3.73,0.04-5.55c0.02-1.86,0.06-3.94,0.1-6.24c0.04-2.03,0.08-3.71,0.12-5.01
			c0.02-0.64,0.05-1.17,0.09-1.57c0.03-0.35,0.08-0.66,0.12-0.79c0.16-0.43,0.36-0.67,0.68-0.8c0.36-0.14,0.98-0.27,1.74-0.35
			l0.26-0.03l0.06-1.47l-0.34,0.03c-0.6,0.06-1.91,0.09-3.81,0.09c-0.01,0-0.03,0-0.04,0c-0.32-0.02-0.69-0.03-1.15-0.04
			c-0.47-0.01-1.43-0.03-2.91-0.04h-0.3v1.37l0.29,0.01c0.59,0.02,1.09,0.12,1.33,0.26c0.12,0.06,0.36,0.26,0.52,0.9
			c0.13,0.52,0.22,1.38,0.24,2.47c0.01,0.57,0.02,1.27,0.02,2.1s-0.01,1.8-0.02,2.9l-0.04,9.77c0,1.91-0.02,3.4-0.07,4.41
			c-0.04,0.98-0.15,1.75-0.29,2.22c-0.14,0.44-0.33,0.75-0.59,0.91c-0.27,0.18-0.77,0.37-1.41,0.54l-0.24,0.06l0.06,1.22h12.64
			c0.41,0,0.77,0,1.07,0.01C307.05,136.24,307.39,136.26,307.75,136.27L307.75,136.27z"/>
	</g>
</g>
</svg>
